<svg xmlns="http://www.w3.org/2000/svg" width="749" height="141" viewBox="0 0 749 141">
    <g fill="#000" fill-rule="nonzero">
        <path d="M96.5 63.8v42.1H79.4V65.2c0-6.6-4.5-11.7-11-11.7-7.1 0-11.6 5.6-11.6 12.4v39.9H39.7V65.2c0-6.6-4.5-11.7-11.2-11.7-6.9 0-11.4 5.6-11.4 12.4v39.9H0V39.5h17.1v6.6c4-4.8 9.6-7.9 16.1-7.9 7.5 0 14.5 4 18.9 10.3 4.4-6.4 11.3-10.3 19.8-10.3 14.2.1 24.6 11.2 24.6 25.6zM178.7 75.7h-52.2c1.3 10.9 8.9 17.6 18.8 17.6 7.1 0 13.3-3.4 16.9-9.6l13.7 5.6c-5.5 11-16.7 17.8-30.6 17.8-21 0-35.6-15.2-35.6-34.4s14.8-34.4 35.1-34.4c19.1 0 33.7 13.6 34.2 33.7l-.3 3.7zm-51.1-11.6h33.6c-2.5-7.6-8-12.3-16.4-12.3-8.3 0-14.5 4.8-17.2 12.3zM261.3 39.5v64.6c0 22.2-15.5 36.1-36.4 36.1-11.9 0-25-5.4-32.6-16.2l10.4-10.4c5.6 7.5 13.4 11.7 21.5 11.7 11.4 0 20-8.3 20-21.2v-6.9c-4.5 5.8-11.4 9.9-21.5 9.9-18.5 0-33.3-14.7-33.3-34.6 0-19.9 14.9-34.5 33.2-34.5 10 0 16.9 4.1 21.6 10v-8.5h17.1zm-16.6 33.1c0-10.7-8.5-19.3-19.1-19.3-10.7 0-19.1 8.6-19.1 19.3 0 10.7 8.3 19.3 19.1 19.3 10.6 0 19.1-8.6 19.1-19.3zM346.1 39.5v66.3H330l-.4-9.5c-4.8 6.2-12.1 10.7-22.7 10.7-17.5 0-32.3-14.7-32.3-34.6 0-19.8 14.8-34.6 32.3-34.6 10 0 17.2 4.1 22 9.9v-8.3h17.2v.1zm-16.3 33.1c0-10.7-8.3-19.3-19.1-19.3-10.6 0-19.1 8.6-19.1 19.3 0 10.7 8.5 19.3 19.1 19.3 10.7 0 19.1-8.6 19.1-19.3zM460.9 63.8v42.1h-17.1V65.2c0-6.6-4.5-11.7-11-11.7-7.1 0-11.6 5.6-11.6 12.4v39.9h-17.1V65.2c0-6.6-4.5-11.7-11.2-11.7-6.9 0-11.4 5.6-11.4 12.4v39.9h-17.1V39.5h17.2v6.6c4-4.8 9.6-7.9 16.1-7.9 7.5 0 14.5 4 18.9 10.3 4.4-6.4 11.3-10.3 19.8-10.3 14.2.1 24.5 11.2 24.5 25.6zM543.2 75.7H491c1.3 10.9 8.9 17.6 18.8 17.6 7.1 0 13.3-3.4 16.9-9.6l13.7 5.6c-5.5 11-16.7 17.8-30.6 17.8-21 0-35.6-15.2-35.6-34.4s14.8-34.4 35.1-34.4c19.1 0 33.7 13.6 34.2 33.7l-.3 3.7zm-51.1-11.6h33.6c-2.5-7.6-8-12.3-16.4-12.3-8.3 0-14.5 4.8-17.2 12.3zM625.5 0v105.9h-16.1l-.4-9.5c-4.8 6.2-12.1 10.7-22.7 10.7-17.5 0-32.3-14.7-32.3-34.6 0-19.8 14.8-34.6 32.3-34.6 10 0 17.2 4.1 22 9.9V0h17.2zm-16.4 72.6c0-10.7-8.3-19.3-19.1-19.3-10.6 0-19.1 8.6-19.1 19.3 0 10.7 8.5 19.3 19.1 19.3 10.8 0 19.1-8.6 19.1-19.3zM643.1 129.2c0-5.5 4.7-9.9 10-9.9 5.5 0 10 4.4 10 9.9s-4.5 9.9-10 9.9c-5.3 0-10-4.3-10-9.9zm1.6-89.7h16.9v66.3h-16.9V39.5zM748.6 39.5v66.3h-16.1l-.4-9.5c-4.8 6.2-12.1 10.7-22.7 10.7-17.5 0-32.3-14.7-32.3-34.6 0-19.8 14.8-34.6 32.3-34.6 10 0 17.2 4.1 22 9.9v-8.3h17.2v.1zm-16.4 33.1c0-10.7-8.3-19.3-19.1-19.3-10.6 0-19.1 8.6-19.1 19.3 0 10.7 8.5 19.3 19.1 19.3 10.8 0 19.1-8.6 19.1-19.3z"/>
    </g>
</svg>
