<svg width="201" height="38" xmlns="http://www.w3.org/2000/svg" xmlns:xlink="http://www.w3.org/1999/xlink" xml:space="preserve" overflow="hidden"><g><path d="M25.8965 17.1212 25.8965 28.4191 21.3076 28.4191 21.3076 17.4969C21.3076 15.7258 20.1 14.3571 18.3557 14.3571 16.4503 14.3571 15.2427 15.8599 15.2427 17.6848L15.2427 28.3923 10.6538 28.3923 10.6538 17.4969C10.6538 15.7258 9.4462 14.3571 7.6482 14.3571 5.79653 14.3571 4.58892 15.8599 4.58892 17.6848L4.58892 28.3923 0 28.3923 0 10.6001 4.58892 10.6001 4.58892 12.3713C5.66235 11.0832 7.16515 10.2513 8.90948 10.2513 10.9222 10.2513 12.8007 11.3247 13.9814 13.0154 15.1622 11.2979 17.0139 10.2513 19.2949 10.2513 23.1056 10.2781 25.8965 13.2569 25.8965 17.1212ZM47.9555 20.3147 33.9473 20.3147C34.2961 23.2398 36.3356 25.0378 38.9924 25.0378 40.8977 25.0378 42.5616 24.1254 43.5276 22.4615L47.2041 23.9644C45.7282 26.9163 42.7226 28.7411 38.9924 28.7411 33.3569 28.7411 29.4389 24.6621 29.4389 19.5096 29.4389 14.3571 33.4105 10.2781 38.8582 10.2781 43.9838 10.2781 47.9019 13.9278 48.036 19.3218L47.9555 20.3147ZM34.2425 17.2017 43.2593 17.2017C42.5884 15.1622 41.1124 13.9009 38.8582 13.9009 36.6308 13.9009 34.967 15.1891 34.2425 17.2017ZM70.1219 10.6001 70.1219 27.936C70.1219 33.8936 65.9623 37.6238 60.3537 37.6238 57.1602 37.6238 53.6447 36.1746 51.6052 33.2764L54.3961 30.4854C55.8989 32.4981 57.9921 33.6252 60.1658 33.6252 63.2251 33.6252 65.533 31.3979 65.533 27.936L65.533 26.0844C64.3254 27.6409 62.4737 28.7411 59.7633 28.7411 54.7987 28.7411 50.827 24.7963 50.827 19.4559 50.827 14.1156 54.8255 10.1976 59.7365 10.1976 62.42 10.1976 64.2717 11.2979 65.533 12.8812L65.533 10.6001 70.1219 10.6001ZM65.6672 19.4828C65.6672 16.6113 63.3861 14.3035 60.5415 14.3035 57.6701 14.3035 55.4159 16.6113 55.4159 19.4828 55.4159 22.3542 57.6433 24.6621 60.5415 24.6621 63.3861 24.6621 65.6672 22.3542 65.6672 19.4828ZM92.8786 10.6001 92.8786 28.3923 88.5581 28.3923 88.4507 25.8429C87.1626 27.5067 85.2036 28.7143 82.359 28.7143 77.6628 28.7143 73.6911 24.7694 73.6911 19.4291 73.6911 14.1156 77.6628 10.1439 82.359 10.1439 85.0426 10.1439 86.9748 11.2442 88.2629 12.8007L88.2629 10.5733 92.8786 10.5733 92.8786 10.6001ZM88.5044 19.4828C88.5044 16.6113 86.277 14.3035 83.3788 14.3035 80.5342 14.3035 78.2531 16.6113 78.2531 19.4828 78.2531 22.3542 80.5342 24.6621 83.3788 24.6621 86.2502 24.6621 88.5044 22.3542 88.5044 19.4828ZM123.686 17.1212 123.686 28.4191 119.097 28.4191 119.097 17.4969C119.097 15.7258 117.89 14.3571 116.145 14.3571 114.24 14.3571 113.032 15.8599 113.032 17.6848L113.032 28.3923 108.443 28.3923 108.443 17.4969C108.443 15.7258 107.236 14.3571 105.438 14.3571 103.586 14.3571 102.379 15.8599 102.379 17.6848L102.379 28.3923 97.7896 28.3923 97.7896 10.6001 102.405 10.6001 102.405 12.3713C103.479 11.0832 104.982 10.2513 106.726 10.2513 108.739 10.2513 110.617 11.3247 111.798 13.0154 112.979 11.2979 114.83 10.2513 117.111 10.2513 120.922 10.2781 123.686 13.2569 123.686 17.1212ZM145.772 20.3147 131.764 20.3147C132.113 23.2398 134.152 25.0378 136.809 25.0378 138.714 25.0378 140.378 24.1254 141.344 22.4615L145.021 23.9644C143.545 26.9163 140.539 28.7411 136.809 28.7411 131.173 28.7411 127.255 24.6621 127.255 19.5096 127.255 14.3571 131.227 10.2781 136.675 10.2781 141.8 10.2781 145.718 13.9278 145.852 19.3218L145.772 20.3147ZM132.059 17.2017 141.076 17.2017C140.405 15.1622 138.929 13.9009 136.675 13.9009 134.447 13.9009 132.783 15.1891 132.059 17.2017ZM167.858 0 167.858 28.4191 163.537 28.4191 163.43 25.8697C162.142 27.5335 160.183 28.7411 157.338 28.7411 152.642 28.7411 148.67 24.7963 148.67 19.4559 148.67 14.1425 152.642 10.1708 157.338 10.1708 160.022 10.1708 161.954 11.271 163.242 12.8275L163.242 0 167.858 0ZM163.457 19.4828C163.457 16.6113 161.229 14.3035 158.331 14.3035 155.487 14.3035 153.205 16.6113 153.205 19.4828 153.205 22.3542 155.487 24.6621 158.331 24.6621 161.229 24.6621 163.457 22.3542 163.457 19.4828ZM172.581 34.6718C172.581 33.1959 173.842 32.0151 175.264 32.0151 176.74 32.0151 177.948 33.1959 177.948 34.6718 177.948 36.1478 176.74 37.3286 175.264 37.3286 173.842 37.3286 172.581 36.1746 172.581 34.6718ZM173.01 10.6001 177.546 10.6001 177.546 28.3923 173.01 28.3923 173.01 10.6001ZM200.893 10.6001 200.893 28.3923 196.572 28.3923 196.465 25.8429C195.177 27.5067 193.218 28.7143 190.373 28.7143 185.677 28.7143 181.705 24.7694 181.705 19.4291 181.705 14.1156 185.677 10.1439 190.373 10.1439 193.057 10.1439 194.989 11.2442 196.277 12.8007L196.277 10.5733 200.893 10.5733 200.893 10.6001ZM196.492 19.4828C196.492 16.6113 194.264 14.3035 191.366 14.3035 188.521 14.3035 186.24 16.6113 186.24 19.4828 186.24 22.3542 188.521 24.6621 191.366 24.6621 194.264 24.6621 196.492 22.3542 196.492 19.4828Z" transform="scale(1 1.00427)"/></g></svg>